<svg xmlns="http://www.w3.org/2000/svg" width="149.28" height="35" viewBox="0 0 149.28 35"><rect class="svg__rect" x="0" y="0" width="56.42" height="35" fill="#EA4560"/><rect class="svg__rect" x="54.42" y="0" width="94.86" height="35" fill="#005384"/><path class="svg__text" d="M15.00 22L13.46 22L16.68 13.47L18.01 13.47L21.24 22L19.69 22L18.99 20.01L15.69 20.01L15.00 22ZM17.34 15.28L16.10 18.82L18.58 18.82L17.34 15.28ZM27.23 18.86L24.37 13.47L26.01 13.47L27.98 17.51L29.94 13.47L31.58 13.47L28.72 18.86L28.72 22L27.23 22L27.23 18.86ZM37.53 18.86L34.67 13.47L36.31 13.47L38.28 17.51L40.24 13.47L41.88 13.47L39.02 18.86L39.02 22L37.53 22L37.53 18.86Z" fill="#FFFFFF"/><path class="svg__text" d="M74.99 22L68.61 22L68.61 13.60L70.99 13.60L70.99 20.11L74.99 20.11L74.99 22ZM86.16 22L79.41 22L79.41 13.60L86.00 13.60L86.00 15.44L81.77 15.44L81.77 16.85L85.50 16.85L85.50 18.63L81.77 18.63L81.77 20.17L86.16 20.17L86.16 22ZM90.38 21.24L90.38 21.24L91.15 19.49Q91.72 19.86 92.46 20.09Q93.21 20.32 93.93 20.32L93.93 20.32Q95.29 20.32 95.30 19.64L95.30 19.64Q95.30 19.28 94.91 19.11Q94.52 18.93 93.65 18.74L93.65 18.74Q92.70 18.53 92.07 18.30Q91.43 18.06 90.98 17.55Q90.52 17.03 90.52 16.16L90.52 16.16Q90.52 15.39 90.94 14.77Q91.36 14.15 92.19 13.79Q93.03 13.43 94.24 13.43L94.24 13.43Q95.06 13.43 95.87 13.62Q96.67 13.80 97.29 14.17L97.29 14.17L96.56 15.93Q95.36 15.28 94.23 15.28L94.23 15.28Q93.52 15.28 93.19 15.49Q92.87 15.70 92.87 16.04L92.87 16.04Q92.87 16.37 93.26 16.54Q93.64 16.71 94.49 16.89L94.49 16.89Q95.45 17.10 96.08 17.33Q96.71 17.56 97.17 18.07Q97.64 18.58 97.64 19.46L97.64 19.46Q97.64 20.21 97.22 20.83Q96.80 21.44 95.96 21.80Q95.12 22.17 93.91 22.17L93.91 22.17Q92.89 22.17 91.93 21.92Q90.97 21.67 90.38 21.24ZM101.78 17.80L101.78 17.80Q101.78 16.54 102.38 15.54Q102.98 14.55 104.05 13.99Q105.12 13.43 106.46 13.43L106.46 13.43Q107.64 13.43 108.57 13.83Q109.51 14.22 110.13 14.97L110.13 14.97L108.62 16.33Q107.78 15.40 106.60 15.40L106.60 15.40Q106.59 15.40 106.58 15.40L106.58 15.40Q105.50 15.40 104.84 16.06Q104.18 16.71 104.18 17.80L104.18 17.80Q104.18 18.50 104.48 19.04Q104.78 19.59 105.32 19.89Q105.86 20.20 106.56 20.20L106.56 20.20Q107.24 20.20 107.84 19.93L107.84 19.93L107.84 17.62L109.94 17.62L109.94 21.10Q109.22 21.61 108.28 21.89Q107.35 22.17 106.41 22.17L106.41 22.17Q105.09 22.17 104.04 21.61Q102.98 21.05 102.38 20.05Q101.78 19.06 101.78 17.80ZM114.50 17.80L114.50 17.80Q114.50 16.55 115.11 15.55Q115.71 14.56 116.77 14.00Q117.84 13.43 119.17 13.43L119.17 13.43Q120.50 13.43 121.56 14.00Q122.63 14.56 123.23 15.55Q123.84 16.55 123.84 17.80L123.84 17.80Q123.84 19.05 123.23 20.04Q122.63 21.04 121.56 21.60Q120.50 22.17 119.17 22.17L119.17 22.17Q117.84 22.17 116.77 21.60Q115.71 21.04 115.11 20.04Q114.50 19.05 114.50 17.80ZM116.90 17.80L116.90 17.80Q116.90 18.51 117.20 19.05Q117.50 19.60 118.02 19.90Q118.54 20.20 119.17 20.20L119.17 20.20Q119.81 20.20 120.32 19.90Q120.84 19.60 121.14 19.05Q121.44 18.51 121.44 17.80L121.44 17.80Q121.44 17.09 121.14 16.54Q120.84 16 120.32 15.70Q119.81 15.40 119.17 15.40L119.17 15.40Q118.53 15.40 118.02 15.70Q117.50 16 117.20 16.54Q116.90 17.09 116.90 17.80ZM128.14 17.80L128.14 17.80Q128.14 16.55 128.74 15.55Q129.35 14.56 130.41 14.00Q131.47 13.43 132.80 13.43L132.80 13.43Q134.13 13.43 135.20 14.00Q136.26 14.56 136.87 15.55Q137.47 16.55 137.47 17.80L137.47 17.80Q137.47 19.05 136.87 20.04Q136.26 21.04 135.20 21.60Q134.14 22.17 132.80 22.17L132.80 22.17Q131.47 22.17 130.41 21.60Q129.35 21.04 128.74 20.04Q128.14 19.05 128.14 17.80ZM130.54 17.80L130.54 17.80Q130.54 18.51 130.84 19.05Q131.14 19.60 131.65 19.90Q132.17 20.20 132.80 20.20L132.80 20.20Q133.44 20.20 133.96 19.90Q134.47 19.60 134.77 19.05Q135.07 18.51 135.07 17.80L135.07 17.80Q135.07 17.09 134.77 16.54Q134.47 16 133.96 15.70Q133.44 15.40 132.80 15.40L132.80 15.40Q132.16 15.40 131.65 15.70Q131.14 16 130.84 16.54Q130.54 17.09 130.54 17.80Z" fill="#FFFFFF" x="67.42"/></svg>